HIERARCHY
ROOT root
{
	OFFSET	0	13.1	24.9
	CHANNELS 6  Xposition Yposition Zposition Xrotation Yrotation Zrotation
	JOINT spine_1
	{
		OFFSET	0	9.99999	0
		CHANNELS 3  Xrotation Yrotation Zrotation
		JOINT spine_2
		{
			OFFSET	0	112	-10
			CHANNELS 3  Xrotation Yrotation Zrotation
			JOINT spine_3
			{
				OFFSET	0	206.5	19.3
				CHANNELS 3  Xrotation Yrotation Zrotation
				JOINT spine_4
				{
					OFFSET	0	110.4	14.6
					CHANNELS 3  Xrotation Yrotation Zrotation
					JOINT neck_1
					{
						OFFSET	0	71.8	-50.3
						CHANNELS 3  Xrotation Yrotation Zrotation
						JOINT neck_2
						{
							OFFSET	0	86.2	-25.8
							CHANNELS 3  Xrotation Yrotation Zrotation
							JOINT head_ee
							{
								OFFSET	0	179.8	-8.7
								CHANNELS 3  Xrotation Yrotation Zrotation
								End Site
								{
									OFFSET	1	0	0
								}
							}
						}
					}
					JOINT left_clavicle
					{
						OFFSET	-43.2	22.4	-70.8
						CHANNELS 3  Xrotation Yrotation Zrotation
						JOINT left_shoulder
						{
							OFFSET	-93.9	-5.79999	48.7
							CHANNELS 3  Xrotation Yrotation Zrotation
							JOINT left_elbow
							{
								OFFSET	-291.4	-30.8	15.2
								CHANNELS 3  Xrotation Yrotation Zrotation
								JOINT left_lowarm_twist
								{
									OFFSET	-110.7	-3.89999	13.6
									CHANNELS 3  Xrotation Yrotation Zrotation
									JOINT left_hand
									{
										OFFSET	-110.7	-3.89999	13.6
										CHANNELS 3  Xrotation Yrotation Zrotation
										JOINT left_ee
										{
											OFFSET	-80.8	-5.10001	12.1
											CHANNELS 3  Xrotation Yrotation Zrotation
											End Site
											{
												OFFSET	1	0	0
											}
										}
									}
								}
							}
						}
					}
					JOINT right_clavicle
					{
						OFFSET	43.2	22.4	-70.8
						CHANNELS 3  Xrotation Yrotation Zrotation
						JOINT right_shoulder
						{
							OFFSET	93.9	-5.79999	48.7
							CHANNELS 3  Xrotation Yrotation Zrotation
							JOINT right_elbow
							{
								OFFSET	291.4	-30.8	15.2
								CHANNELS 3  Xrotation Yrotation Zrotation
								JOINT right_lowarm_twist
								{
									OFFSET	110.7	-3.89999	13.6
									CHANNELS 3  Xrotation Yrotation Zrotation
									JOINT right_hand
									{
										OFFSET	110.7	-3.89999	13.6
										CHANNELS 3  Xrotation Yrotation Zrotation
										JOINT right_ee
										{
											OFFSET	80.8	-5.10001	12.1
											CHANNELS 3  Xrotation Yrotation Zrotation
											End Site
											{
												OFFSET	1	0	0
											}
										}
									}
								}
							}
						}
					}
				}
			}
		}
	}
	JOINT left_hip
	{
		OFFSET	-82.8	-127.5	0.300001
		CHANNELS 3  Xrotation Yrotation Zrotation
		JOINT left_knee
		{
			OFFSET	-28.2	-396.7	2.2
			CHANNELS 3  Xrotation Yrotation Zrotation
			JOINT left_ankle
			{
				OFFSET	-11.7	-411.3	35.4
				CHANNELS 3  Xrotation Yrotation Zrotation
				JOINT left_toes
				{
					OFFSET	0	-60	-88.6
					CHANNELS 3  Xrotation Yrotation Zrotation
					JOINT left_foot_ee
					{
						OFFSET	-22.5	-16.5	-42.2
						CHANNELS 3  Xrotation Yrotation Zrotation
						End Site
						{
							OFFSET	1	0	0
						}
					}
				}
			}
		}
	}
	JOINT right_hip
	{
		OFFSET	82.8	-127.5	0.300001
		CHANNELS 3  Xrotation Yrotation Zrotation
		JOINT right_knee
		{
			OFFSET	28.2	-396.7	2.2
			CHANNELS 3  Xrotation Yrotation Zrotation
			JOINT right_ankle
			{
				OFFSET	11.7	-411.3	35.4
				CHANNELS 3  Xrotation Yrotation Zrotation
				JOINT right_toes
				{
					OFFSET	0	-60	-88.6
					CHANNELS 3  Xrotation Yrotation Zrotation
					JOINT right_foot_ee
					{
						OFFSET	22.5	-16.5	-42.2
						CHANNELS 3  Xrotation Yrotation Zrotation
						End Site
						{
							OFFSET	1	0	0
						}
					}
				}
			}
		}
	}
}
MOTION
Frames: 15
Frame Time: 0.02
1015.41 727.643 -670.258 -179.953 -54.2024 173.388 0.566223 0.280502 3.33636 0.572413 0.0677539 3.34743 0.578339 -0.604729 3.29311 0.563216 -0.0773577 3.34722 -9.93442 10.6816 14.4103 -9.39685 10.3076 16.5947 -0.0 0.0 -0.0 -4.87882 22.064 -4.34989 11.4164 -6.62729 64.5239 1.94626 -43.9488 0.785393 4.08908 0.126018 -0.50699 2.94643 18.653 26.3331 -0.0 0.0 -0.0 10.6817 25.5433 -20.4425 -19.7671 46.967 -60.6517 0.521925 14.4964 -0.0663807 59.4637 1.72641 7.05824 1.30172 -11.2203 -13.0324 0.0 0.0 0.0 4.88539 19.4426 10.4539 -21.1797 0.279751 3.21968 30.1418 26.4796 -4.16156 -11.9184 0.0 0.0 -0.0 0.0 -0.0 16.5198 35.6187 -0.0404566 -55.0486 1.68971 -7.95781 38.2605 -24.4683 4.98135 -17.5655 0.0 0.0 0.0 0.0 0.0 
1027.79 728.37 -671.806 179.465 -53.4761 172.961 0.654197 0.229271 3.29925 0.660252 0.0189834 3.30715 0.663068 -0.63969 3.24481 0.648397 -0.119497 3.30504 -11.3376 11.1994 14.5112 -10.8124 11.6678 16.9134 -0.0 0.0 -0.0 -4.98507 21.5951 -4.62298 12.8394 -7.1884 63.8405 2.06744 -45.6781 0.870807 5.45606 0.160032 -0.678293 2.91007 16.6875 25.5543 -0.0 0.0 -0.0 10.502 24.8993 -20.1048 -22.5989 46.8809 -59.6075 0.577255 15.9583 -0.0809143 59.2465 1.70731 7.03799 1.40455 -10.9042 -13.5936 0.0 0.0 0.0 2.02556 21.1992 11.5757 -19.5318 0.300916 2.96771 31.7062 26.4777 -4.34162 -11.6168 0.0 0.0 -0.0 0.0 -0.0 21.8889 33.9853 -2.02655 -56.6242 1.84671 -8.14314 36.3754 -26.0714 4.83891 -18.4003 0.0 0.0 0.0 0.0 0.0 
1036.49 731.968 -676.459 179.807 -52.6053 173.383 0.659326 0.370946 3.23346 0.665127 0.164553 3.25048 0.676305 -0.484764 3.21838 0.661853 0.029322 3.25451 -13.1821 11.2271 14.4061 -12.6929 12.3694 16.9903 -0.0 0.0 -0.0 -5.01351 20.901 -4.84282 13.8874 -8.26591 63.4528 2.08827 -45.9651 0.88575 4.43394 0.134985 -0.550129 2.57579 17.6028 23.5325 -0.0 0.0 -0.0 10.1155 22.3868 -19.472 -23.944 46.7835 -58.0668 0.609193 16.7927 -0.0899189 59.2192 1.7049 7.03543 1.427 -10.3014 -13.5243 0.0 0.0 0.0 0.631736 19.1659 13.1758 -17.5976 0.3165 2.67137 30.3958 27.6538 -4.22393 -12.0152 0.0 0.0 -0.0 0.0 -0.0 28.521 34.3754 -5.21114 -53.707 1.56011 -7.79669 32.5092 -25.0618 4.39311 -19.0942 0.0 0.0 0.0 0.0 0.0 
1049.29 732.062 -678.633 179.567 -51.8417 172.963 0.775723 0.455821 3.16694 0.781266 0.253482 3.1895 0.797089 -0.378632 3.17709 0.783027 0.127616 3.197 -15.1658 10.4138 15.4002 -14.5891 10.8154 17.8753 -0.0 0.0 -0.0 -5.61805 20.408 -5.87013 14.8266 -8.3288 63.4915 2.22171 -47.7347 0.983113 4.35315 0.132908 -0.540019 2.58606 17.4393 23.5555 -0.0 0.0 -0.0 10.0145 20.8021 -19.3754 -25.2762 46.0083 -57.3352 0.576831 15.9472 -0.0807978 59.0938 1.69391 7.0237 1.46354 -10.1288 -13.7033 0.0 0.0 0.0 -0.214085 17.7879 14.1865 -17.3112 0.317956 2.62745 30.018 27.5922 -4.17779 -12.5604 0.0 0.0 -0.0 0.0 -0.0 30.2666 33.0794 -6.23374 -54.5072 1.63695 -7.89315 31.9038 -26.6923 4.37018 -16.5918 0.0 0.0 0.0 0.0 0.0 
1057.37 730.642 -679.573 -179.571 -50.9707 174.076 1.01129 0.580946 3.15894 1.01676 0.378862 3.18947 1.03934 -0.241946 3.20275 1.02513 0.266638 3.20079 -17.0264 10.2577 15.7452 -16.4398 10.9012 18.3505 -0.0 0.0 -0.0 -5.98223 19.9729 -6.53938 15.8549 -8.826 62.9981 2.33698 -49.1724 1.06939 4.39028 0.133864 -0.544666 2.54582 16.6646 23.0624 -0.0 0.0 -0.0 10.1608 19.2911 -19.8132 -26.3916 45.5151 -56.4848 0.56614 15.6663 -0.0778857 59.0993 1.6944 7.02422 1.50579 -9.98866 -13.9323 0.0 0.0 0.0 -1.14214 17.4219 14.9378 -14.5633 0.320773 2.20589 29.4529 27.847 -4.1181 -13.1687 0.0 0.0 -0.0 0.0 -0.0 31.4783 32.2849 -7.24244 -54.654 1.65119 -7.91073 30.2149 -27.0555 4.1858 -15.7356 0.0 0.0 0.0 0.0 0.0 
1068.75 731.659 -679.78 -179.05 -52.7072 174.69 1.05209 0.327271 3.20057 1.05778 0.123055 3.21489 1.06584 -0.496789 3.17869 1.05175 0.0111905 3.21722 -17.6739 10.0005 14.453 -17.2155 11.3207 17.1527 -0.0 0.0 -0.0 -5.734 19.572 -6.27526 17.1096 -8.4835 61.9533 2.43289 -50.3081 1.14258 4.36956 0.133331 -0.542072 2.35119 13.1119 20.6584 -0.0 0.0 -0.0 10.1826 18.0436 -19.9424 -27.273 45.0872 -56.2919 0.51851 14.4055 -0.0655287 59.2787 1.71013 7.04099 1.5756 -9.8797 -14.3562 0.0 0.0 0.0 -2.39307 17.6231 15.6749 -11.7314 0.302526 1.77181 28.991 29.8456 -4.12198 -13.5958 0.0 0.0 -0.0 0.0 -0.0 32.8937 27.7613 -6.63462 -55.5749 1.74158 -8.02019 29.0368 -27.6194 4.06211 -14.9537 0.0 0.0 0.0 0.0 0.0 
1082.24 735.644 -680.552 -179.281 -51.7417 174.707 1.0927 0.57548 3.19482 1.09831 0.371127 3.22493 1.12058 -0.251787 3.23642 1.10606 0.26223 3.23559 -20.2478 9.53424 14.3809 -19.8253 11.1743 17.2583 -0.0 0.0 -0.0 -6.14946 20.7589 -6.56432 17.0772 -8.72861 62.4508 2.7637 -53.8447 1.40366 4.37184 0.13339 -0.542358 2.40801 12.2891 20.7788 -0.0 0.0 -0.0 10.3563 17.4228 -20.3679 -27.6462 44.0775 -56.2793 0.428509 11.9845 -0.0449799 58.8667 1.67408 7.00241 1.66323 -10.7889 -15.2622 0.0 0.0 0.0 -4.47951 17.6031 16.4619 -9.75324 0.277065 1.46937 26.2625 29.6084 -3.77634 -14.2342 0.0 0.0 -0.0 0.0 -0.0 36.5633 31.0532 -10.0668 -48.8029 1.11952 -7.18339 30.1115 -26.7347 4.1649 -15.8631 0.0 0.0 0.0 0.0 0.0 
1094.65 732.403 -683.987 -179.402 -51.5662 174.52 1.1221 0.567643 3.22642 1.12782 0.361298 3.25596 1.1497 -0.265725 3.26514 1.13491 0.252995 3.26615 -21.3881 9.24105 15.2566 -20.8857 10.4897 18.0997 -0.0 0.0 -0.0 -6.41719 20.7267 -6.97393 18.6365 -9.28696 62.4186 2.82676 -54.4577 1.45477 4.43885 0.135111 -0.550744 2.53172 11.6995 21.4341 -0.0 0.0 -0.0 10.0269 16.9728 -19.6563 -27.48 43.0082 -56.4529 0.4473 12.4939 -0.0489634 59.1231 1.69649 7.02645 1.67344 -10.2766 -15.1486 0.0 0.0 0.0 -6.02963 17.0124 17.2922 -8.63461 0.258049 1.29877 27.0409 28.5969 -3.84586 -14.0934 0.0 0.0 -0.0 0.0 -0.0 40.3729 30.1951 -11.5082 -44.7175 0.793837 -6.64568 27.5908 -27.3651 3.8808 -17.6465 0.0 0.0 0.0 0.0 0.0 
1117.6 732.22 -686.745 -177.565 -50.7035 176.007 1.37636 0.5802 3.22665 1.38207 0.373816 3.25698 1.40427 -0.239071 3.26962 1.38947 0.280022 3.26637 -21.3884 9.8953 13.6217 -21.0916 12.5454 16.9004 -0.0 0.0 -0.0 -6.12203 22.0135 -6.15766 18.3207 -8.20787 62.1265 3.10538 -56.9615 1.68502 4.26258 0.130562 -0.528686 2.30841 9.05587 19.0077 -0.0 0.0 -0.0 9.99909 16.5798 -19.6153 -28.6063 41.782 -56.2221 0.388048 10.8813 -0.0369593 58.9648 1.68263 7.01161 1.89758 -10.4903 -16.7213 0.0 0.0 0.0 -6.50214 18.8092 17.7374 -8.69046 0.259077 1.30728 24.8428 27.9996 -3.55481 -14.6186 0.0 0.0 -0.0 0.0 -0.0 39.0463 30.1298 -10.9241 -37.7663 0.330811 -5.68303 28.0027 -27.0018 3.92142 -17.5384 0.0 0.0 0.0 0.0 0.0 
1135.47 726.255 -685.762 -177.575 -50.0713 175.867 1.45129 0.653502 3.23656 1.45701 0.44634 3.27153 1.4834 -0.165848 3.29764 1.4684 0.356747 3.2825 -21.9559 10.6476 13.6268 -21.7367 14.1423 17.3418 -0.0 0.0 -0.0 -5.98341 23.8087 -5.43636 18.9101 -8.14962 61.7838 3.53989 -60.2902 2.05616 2.75918 0.0890115 -0.341145 2.20937 5.82872 17.17 -0.0 0.0 -0.0 9.63038 15.6972 -18.8407 -27.9997 40.9134 -57.3736 0.292183 8.23592 -0.0210361 59.114 1.69569 7.0256 2.0246 -10.1046 -17.4417 0.0 0.0 0.0 -9.72358 22.2661 19.5865 -5.2395 0.17999 0.783685 22.1686 28.7552 -3.22629 -14.1332 0.0 0.0 -0.0 0.0 -0.0 40.6828 29.4356 -11.6568 -34.6636 0.162625 -5.237 27.1995 -26.3136 3.80709 -18.735 0.0 0.0 0.0 0.0 0.0 
1150.62 725.162 -686.988 -178.321 -50.7372 174.825 1.31723 0.733239 3.42768 1.32362 0.513776 3.46732 1.35602 -0.143463 3.5022 1.33914 0.411103 3.48097 -23.4376 11.2143 14.0545 -23.2868 15.4102 18.2871 -0.0 0.0 -0.0 -5.40191 23.6087 -4.68262 19.2182 -7.44781 61.1498 3.78591 -61.9163 2.27157 0.594864 0.0205794 -0.0731857 2.13565 1.90153 15.1719 -0.0 0.0 -0.0 9.69439 17.1076 -18.9081 -25.6601 38.9072 -59.5699 0.231984 6.55573 -0.0132862 59.3136 1.7132 7.04425 1.32268 -12.6966 -13.6965 0.0 0.0 0.0 -8.22649 25.4317 17.657 -14.0978 0.319248 2.13448 23.7683 27.0199 -3.39553 -13.1995 0.0 0.0 -0.0 0.0 -0.0 39.5168 28.878 -11.1493 -27.8165 -0.121487 -4.2253 27.9056 -24.5102 3.85062 -20.4431 0.0 0.0 0.0 0.0 0.0 
1161.99 722.622 -685.175 -178.768 -51.4535 174.648 1.40505 0.615445 3.42324 1.41148 0.396502 3.45541 1.43641 -0.251782 3.46894 1.41974 0.298895 3.46521 -23.7179 11.6077 13.0293 -23.7335 16.686 17.6216 -0.0 0.0 -0.0 -4.93809 23.3438 -4.10623 19.1925 -6.69122 61.2006 3.95149 -62.9212 2.41833 -1.47588 -0.0543341 0.180635 1.98906 -1.54322 12.7901 -0.0 0.0 -0.0 9.54211 17.4208 -18.5515 -24.2332 37.2371 -61.4456 0.218537 6.17875 -0.0117949 59.3748 1.71858 7.04995 0.925867 -14.9744 -11.9524 0.0 0.0 0.0 -8.19252 27.5823 16.1822 -17.4259 0.3174 2.64503 24.7998 19.9385 -3.3977 -11.6915 0.0 0.0 -0.0 0.0 -0.0 39.1787 27.3928 -12.3526 -18.72 -0.308674 -2.8434 27.5993 -22.5081 3.77356 -21.7402 0.0 0.0 0.0 0.0 0.0 
1170.15 714.368 -682.763 -179.256 -51.9655 174.406 1.31751 0.616711 3.43519 1.32398 0.397006 3.46742 1.34919 -0.258823 3.48045 1.33241 0.293755 3.47768 -24.5051 12.2823 13.8508 -24.5601 17.8187 18.8843 -0.0 0.0 -0.0 -4.46573 23.371 -3.44158 20.0567 -6.36493 61.3578 4.18291 -64.2185 2.62558 -2.91547 -0.111804 0.355444 1.89299 -4.00905 11.1159 -0.0 0.0 -0.0 9.66564 17.7835 -18.8044 -22.7771 36.299 -62.8426 0.199027 5.63086 -0.0097878 59.6656 1.74425 7.077 0.50327 -16.4569 -9.83041 0.0 0.0 0.0 -7.41914 29.1603 15.0647 -21.0935 0.281039 3.20651 25.7016 21.1221 -3.52386 -11.0047 0.0 0.0 -0.0 0.0 -0.0 38.8542 26.5984 -13.2945 -13.9111 -0.318472 -2.10585 28.054 -22.1645 3.82041 -22.559 0.0 0.0 0.0 0.0 0.0 
1181.75 711.029 -680.315 -178.252 -52.1241 175.417 1.30341 0.489858 3.41753 1.30986 0.271531 3.44173 1.32723 -0.37881 3.43159 1.31084 0.167568 3.44835 -24.7926 12.4952 13.2072 -24.9668 18.5621 18.4919 -0.0 0.0 -0.0 -5.10105 23.294 -4.34687 19.8787 -6.97879 61.8571 4.37691 -65.2196 2.80101 -4.35157 -0.173501 0.528356 1.85948 -5.03669 10.4566 -0.0 0.0 -0.0 9.86622 17.805 -19.2499 -22.429 35.176 -62.825 0.205556 5.81433 -0.0104388 59.9053 1.76551 7.09919 0.3377 -18.0567 -9.39616 0.0 0.0 0.0 -7.37293 32.7671 14.3821 -23.3849 0.24011 3.55573 27.5428 16.672 -3.67844 -10.0528 0.0 0.0 -0.0 0.0 -0.0 38.4265 26.1279 -13.6979 -8.2066 -0.249892 -1.2336 27.7312 -20.8887 3.76002 -23.2733 0.0 0.0 0.0 0.0 0.0 
1196.33 709.372 -680.735 -178.988 -53.158 174.717 1.17329 0.495585 3.56536 1.18032 0.267857 3.58963 1.19848 -0.418258 3.57525 1.18068 0.151257 3.59642 -24.6526 12.3866 12.3246 -24.8984 18.6894 17.611 -0.0 0.0 -0.0 -4.63293 23.2868 -3.69499 19.6685 -6.45901 61.7289 4.41686 -65.4167 2.83731 -5.55316 -0.228445 0.671826 1.85607 -5.26172 10.3386 -0.0 0.0 -0.0 9.79319 18.3138 -19.0556 -21.2 33.7564 -63.9284 0.189313 5.35767 -0.00885768 59.9678 1.77106 7.10496 0.126713 -18.7431 -8.36339 0.0 0.0 0.0 -8.13961 31.3771 14.5253 -24.7246 0.209719 3.75906 26.5989 14.364 -3.54703 -10.0358 0.0 0.0 -0.0 0.0 -0.0 38.7202 25.48 -14.3496 -6.73507 -0.218138 -1.01002 26.0578 -21.408 3.57115 -23.8904 0.0 0.0 0.0 0.0 0.0 
